<?xml version="1.0" encoding="utf-8"?>
<!-- Generator: Adobe Illustrator 26.5.0, SVG Export Plug-In . SVG Version: 6.00 Build 0)  -->
<svg version="1.1" id="Layer_1" xmlns="http://www.w3.org/2000/svg" xmlns:xlink="http://www.w3.org/1999/xlink" x="0px" y="0px"
	 viewBox="0 0 800 800" style="enable-background:new 0 0 800 800;" xml:space="preserve">
<style type="text/css">
	.st0{fill:#292535;}
</style>
<g id="_x37_935ec95c421cee6d86eb22ecd116478">
	<path class="st0" d="M323,373.2c0,0,75.6-5.6,75.6-94.2c0-88.6-61.8-131.9-140.1-131.9H114.3h-4.2H0.8v495.2h109.3h4.2h144.1
		c0,0,157.3,5,157.3-146.2C415.7,496.2,422.6,373.2,323,373.2z M239.9,235.2h18.5c0,0,35,0,35,51.5c0,51.5-20.6,59-44,59H114.3
		V235.2L239.9,235.2L239.9,235.2z M251.2,554.3H114.3V422h144.1c0,0,52.2-0.7,52.2,68C310.7,547.9,271.7,553.9,251.2,554.3z
		 M625.5,273.2c-190.4,0-190.3,190.3-190.3,190.3s-13.1,189.3,190.3,189.3c0,0,169.4,9.7,169.4-131.7h-87.1c0,0,2.9,53.2-79.4,53.2
		c0,0-87.2,5.8-87.2-86.1h256.6C797.9,488.1,826,273.2,625.5,273.2z M540.3,422c0,0,10.6-76.3,87.1-76.3C704,345.7,703,422,703,422
		H540.3z M723.3,237.3H519v-61h204.3V237.3z"/>
</g>
</svg>
