<?xml version="1.0" encoding="utf-8"?>
<!-- Generator: Adobe Illustrator 26.5.0, SVG Export Plug-In . SVG Version: 6.00 Build 0)  -->
<svg version="1.1" id="Layer_1" xmlns="http://www.w3.org/2000/svg" xmlns:xlink="http://www.w3.org/1999/xlink" x="0px" y="0px"
	 viewBox="0 0 800 800" style="enable-background:new 0 0 800 800;" xml:space="preserve">
<g>
	<path d="M614.1,391.4l175-134.4v-81c0,0-21.2-115.6-119.4-63.1l-55.6,40.2v0L402.3,318.5L185.6,153.1v0.1l0.3,0.2v0l-0.3-0.2v231.5
		l0.1,105.4l-0.1-105.4L10.8,257.3v396c2.7,43.6,40.9,47.5,40.9,47.5h134.2l0-28.7V384.9l214,168.9L614.1,391.4l0,309.1h134.2
		c0,0,38.2-3.9,40.9-47.5V257L614.1,391.4z"/>
	<path d="M185.6,153.2l-55.3-40C32.1,60.7,10.8,176.3,10.8,176.3v81l174.8,127.4V153.2z"/>
</g>
</svg>
